{"title":"Afro Celt Sound System Live 2011 720p HDRip x264 titler","uid":10890301,"size":1530621372,"categoryP":"video","categoryS":"hd___movies","magnet":"?xt=urn:btih:ac1e1a900f1d9d4f0e8faeddf6a1a46e02b3c787&amp;dn=Afro+Celt+Sound+System+Live+2011+720p+HDRip+x264+titler&amp;tr=udp%3A%2F%2Ftracker.openbittorrent.com%3A80&amp;tr=udp%3A%2F%2Fopen.demonii.com%3A1337&amp;tr=udp%3A%2F%2Ftracker.coppersurfer.tk%3A6969&amp;tr=udp%3A%2F%2Fexodus.desync.com%3A6969","seeders":1,"leechers":0,"uploader":"movieZ.freak","files":2,"time":1409096828,"description":"SOURCE: Afro Celt Sound System Estival Jazz Lugano 2011 720p H264 [TS container, 2 channels audio]\n\n\n\n &lt;a href=&quot;\nhttp://www.afroceltsoundsystem.com/&quot; rel=&quot;nofollow&quot; target=&quot;_NEW&quot;&gt;\nhttp://www.afroceltsoundsystem.com/&lt;/a&gt;\n\n\n\n &lt;a href=&quot;\nhttp://en.wikipedia.org/wiki/Afro_Celt_Sound_System&quot; rel=&quot;nofollow&quot; target=&quot;_NEW&quot;&gt;\nhttp://en.wikipedia.org/wiki/Afro_Celt_Sound_System&lt;/a&gt;\n\n\n\nTS container\n---------------- &lt;a href=&quot;\nhttp://en.wikipedia.org/wiki/MPEG_transport_stream&quot; rel=&quot;nofollow&quot; target=&quot;_NEW&quot;&gt;\nhttp://en.wikipedia.org/wiki/MPEG_transport_stream&lt;/a&gt;\n\n\n\nNOTE:\n----------\n\n- Same case as Coldplay, I have to blow up this... a bit.\n\n- If you like drums and percussions,... ohhhhh, you're gonna like Afro Celt. ;-)\n\n- Sample included.\n\n- Enjoy!\n\n\n\nSCREENSHOTS:\n-------------------    &lt;a href=&quot;\nhttp://someimage.com/4lQ4&quot; rel=&quot;nofollow&quot; target=&quot;_NEW&quot;&gt;\nhttp://someimage.com/4lQ4&lt;/a&gt;\n\n\n\n************************************\n\n- Duration: 1h 25mn\n\n- Bit rate: 2164 Kbps\n\n- Res: 1280 x 720\n\n- AR: 16:9\n\n- FPS: 25.000 fps\n\n- Audio: AC3, 2 channels, 192Kbps\n\n************************************\n\n\nGeneral\n---------------\nFormat : Matroska\nFormat version : Version 4 / Version 2\nFile size : 1.40 GiB\nDuration : 1h 25mn\nOverall bit rate : 2346 Kbps\nEncoded date : UTC 2014-08-26 10:15:43\nWriting application : mkvmerge v7.1.0 ('Good Love') 64bit built on Jul 27 2014 13:06:55\nWriting library : libebml v1.3.0 + libmatroska v1.4.1\n\n\nVideo\n-----------\nFormat : AVC\nFormat/Info : Advanced Video Codec\nFormat profile : &lt;a class=&quot;__cf_email__&quot; href=&quot;/cdn-cgi/l/email-protection&quot; data-cfemail=&quot;d39eb2babd939fe0fde2&quot;&gt;[email&amp;#160;protected]&lt;/a&gt;&lt;script cf-hash='f9e31' type=&quot;text/javascript&quot;&gt;\n/* &lt;![CDATA[ */!function(){try{var t=&quot;currentScript&quot;in document?document.currentScript:function(){for(var t=document.getElementsByTagName(&quot;script&quot;),e=t.length;e--;)if(t[e].getAttribute(&quot;cf-hash&quot;))return t[e]}();if(t&amp;&amp;t.previousSibling){var e,r,n,i,c=t.previousSibling,a=c.getAttribute(&quot;data-cfemail&quot;);if(a){for(e=&quot;&quot;,r=parseInt(a.substr(0,2),16),n=2;a.length-n;n+=2)i=parseInt(a.substr(n,2),16)^r,e+=String.fromCharCode(i);e=document.createTextNode(e),c.parentNode.replaceChild(e,c)}}}catch(u){}}();/* ]]&gt; */&lt;/script&gt;\nFormat settings, CABAC : Yes\nFormat settings, ReFrames : 4 frames\nCodec ID : V_MPEG4/ISO/AVC\nDuration : 1h 25mn\nBit rate : 2164 Kbps\nWidth : 1280 pixels\nHeight : 720 pixels\nDisplay aspect ratio : 16:9\nFrame rate mode : Constant\nFrame rate : 25.000 fps\nColor space : YUV\nChroma subsampling : 4:2:0\nBit depth : 8 bits\nScan type : Progressive\nBits/(Pixel*Frame) : 0.094\nStream size : 1.26 GiB (90%)\nWriting library : x264 core 130\nEncoding settings : cabac=1 / ref=4 \nLanguage : English\nDefault : Yes\nForced : No\n\n\nAudio\n------------\nFormat : AC-3\nFormat/Info : Audio Coding 3\nMode extension : CM (complete main)\nFormat settings, Endianness : Big\nCodec ID : A_AC3\nDuration : 1h 25mn\nBit rate mode : Constant\nBit rate : 192 Kbps\nChannel(s) : 2 channels\nChannel positions : Front: L R\nSampling rate : 44.1 KHz\nBit depth : 16 bits\nCompression mode : Lossy\nStream size : 117 MiB (8%)\nDefault : Yes\nForced : No","torrent":{"xt":"urn:btih:ac1e1a900f1d9d4f0e8faeddf6a1a46e02b3c787","amp;dn":"Afro+Celt+Sound+System+Live+2011+720p+HDRip+x264+titler","amp;tr":["udp%3A%2F%2Ftracker.openbittorrent.com%3A80","udp%3A%2F%2Fopen.demonii.com%3A1337","udp%3A%2F%2Ftracker.coppersurfer.tk%3A6969","udp%3A%2F%2Fexodus.desync.com%3A6969"],"infoHash":"ac1e1a900f1d9d4f0e8faeddf6a1a46e02b3c787","infoHashBuffer":{"type":"Buffer","data":[172,30,26,144,15,29,157,79,14,143,174,221,246,161,164,110,2,179,199,135]},"announce":[],"urlList":[]}}